<svg xmlns="http://www.w3.org/2000/svg" viewBox="0 0 64 64">
  <defs>
    <linearGradient id="g" x1="0" x2="1" y1="0" y2="1">
      <stop offset="0%" stop-color="#2563eb"/>
      <stop offset="100%" stop-color="#22c55e"/>
    </linearGradient>
    <filter id="s" x="-20%" y="-20%" width="140%" height="140%">
      <feDropShadow dx="0" dy="2" stdDeviation="2" flood-color="rgba(0,0,0,0.25)"/>
    </filter>
  </defs>
  <rect x="6" y="6" width="52" height="52" rx="14" fill="url(#g)" filter="url(#s)"/>
  <g fill="#fff">
    <path d="M32 16c-8.3 0-14 4.9-14 12.2 0 5.4 3.1 9.1 8 10.7l.3.1c.6.2 1 .7 1 1.3v2h5.5v-4.2c0-.8-.4-1.5-1.1-1.9-3.7-2.1-5.5-3.6-5.5-6.4 0-3.7 2.9-6.1 6.8-6.1 3.5 0 5.9 1.8 6.7 4.7.2.6.7 1 1.3 1h4c.9 0 1.6-.9 1.3-1.8C45.5 20.3 39.8 16 32 16z"/>
    <circle cx="32" cy="48" r="3"/>
  </g>
</svg>
